<?xml version="1.0" encoding="UTF-8" standalone="no"?>
<!-- Created with Inkscape (http://www.inkscape.org/) -->

<svg
   xmlns:dc="http://purl.org/dc/elements/1.1/"
   xmlns:cc="http://creativecommons.org/ns#"
   xmlns:rdf="http://www.w3.org/1999/02/22-rdf-syntax-ns#"
   xmlns:svg="http://www.w3.org/2000/svg"
   xmlns="http://www.w3.org/2000/svg"
   xmlns:sodipodi="http://sodipodi.sourceforge.net/DTD/sodipodi-0.dtd"
   xmlns:inkscape="http://www.inkscape.org/namespaces/inkscape"
   width="1200"
   height="630"
   id="svg3147"
   version="1.1"
   inkscape:version="0.48.4 r9939"
   sodipodi:docname="facebook.png">
  <defs
     id="defs3149" />
  <sodipodi:namedview
     id="base"
     pagecolor="#ffffff"
     bordercolor="#666666"
     borderopacity="1.0"
     inkscape:pageopacity="0.0"
     inkscape:pageshadow="2"
     inkscape:zoom="0.64"
     inkscape:cx="362.97039"
     inkscape:cy="430.65854"
     inkscape:document-units="px"
     inkscape:current-layer="layer1"
     showgrid="true"
     showguides="false"
     inkscape:window-width="1920"
     inkscape:window-height="1027"
     inkscape:window-x="0"
     inkscape:window-y="0"
     inkscape:window-maximized="1">
    <inkscape:grid
       type="xygrid"
       id="grid3576"
       empspacing="5"
       visible="true"
       enabled="true"
       snapvisiblegridlinesonly="true" />
  </sodipodi:namedview>
  <metadata
     id="metadata3152">
    <rdf:RDF>
      <cc:Work
         rdf:about="">
        <dc:format>image/svg+xml</dc:format>
        <dc:type
           rdf:resource="http://purl.org/dc/dcmitype/StillImage" />
        <dc:title></dc:title>
      </cc:Work>
    </rdf:RDF>
  </metadata>
  <g
     inkscape:label="Layer 1"
     inkscape:groupmode="layer"
     id="layer1"
     transform="translate(0,-422.36218)">
    <g
       id="g82"
       transform="matrix(10.99822,0,0,-13.839042,667.4488,799.57197)">
      <path
         d="m 0,0 -1.381,0 -0.182,-0.582 1.526,0 L 0,0 z m -1.963,-5.089 1.199,0 0,0.763 -1.199,0 0,-0.763 z m -0.618,2.363 2.981,0 0,0.654 -2.981,0 0,-0.654 z m 4.617,-2.363 0,-0.581 -2.073,0 0,-1.309 -0.727,0 0,1.309 -3.235,0 0,0.581 1.309,0 0,0.763 -1.054,0 0,0.582 2.98,0 0,0.581 -1.236,0 -1.199,0 0,1.527 4.217,0 0,-1.527 -1.055,0 0,-0.581 1.6,0 0,-0.582 -1.6,0 0,-0.763 2.073,0 z m -3.308,5.671 2.035,0 -0.109,-1.164 1.163,0 0,-0.581 -5.816,0 0,0.581 1.709,0 0.182,0.582 -1.163,0 0,0.582 1.308,0 0.182,0.763 L -1.054,1.2 C -1.006,1.151 -1.042,1.103 -1.163,1.054 L -1.272,0.582 z m -3.235,-7.525 -0.727,0 0,4.798 c -0.146,-0.363 -0.413,-0.739 -0.8,-1.126 l -0.473,0.69 c 0.897,0.824 1.478,2.145 1.745,3.962 l 0.727,-0.218 c 0.169,-0.072 0.158,-0.158 -0.036,-0.254 -0.097,-0.655 -0.291,-1.333 -0.582,-2.036 0.266,-0.122 0.315,-0.206 0.146,-0.254 l 0,-5.562 z"
         style="fill:#000000;fill-opacity:1;fill-rule:nonzero;stroke:none"
         id="path84"
         inkscape:connector-curvature="0" />
    </g>
    <g
       id="g86"
       transform="matrix(10.99822,0,0,-13.839042,797.713,886.10086)">
      <path
         d="m 0,0 c -0.46,0.848 -0.896,1.466 -1.309,1.854 l 0.51,0.4 C -0.339,1.89 0.146,1.296 0.654,0.473 L 0,0 z m -3.017,1.164 c -0.267,0.484 -0.569,0.872 -0.909,1.163 l 0.546,0.4 C -3.017,2.459 -2.702,2.096 -2.435,1.636 L -3.017,1.164 z m -1.454,1.163 c 0.169,-0.025 0.169,-0.098 0,-0.219 l 0,-1.526 c 0,-0.194 0.085,-0.291 0.255,-0.291 l 2.071,0 c 0.122,0 0.206,0.097 0.255,0.291 L -1.781,1.054 -1.054,0.873 -1.236,0.218 C -1.357,-0.193 -1.599,-0.4 -1.963,-0.4 l -2.58,0 c -0.437,0 -0.655,0.207 -0.655,0.618 l 0,2.109 0.727,0 z m 2.981,1.49 C -2.508,4.156 -3.126,4.568 -3.344,5.053 -3.684,4.374 -4.289,3.938 -5.162,3.744 l -0.29,0.582 c 0.872,0.169 1.417,0.557 1.636,1.163 l -1.527,0 0,0.582 1.599,0 0,0.509 0.618,0 c 0.146,-0.025 0.146,-0.073 0,-0.146 l 0,-0.363 1.781,0 0,-0.582 -1.708,0 C -2.69,4.98 -2.084,4.641 -1.236,4.471 L -1.49,3.817 z m -4.18,-0.254 4.617,0 0,3.271 -4.617,0 0,-3.271 z m 5.343,3.853 0,-4.617 -0.727,0 0,0.182 -4.616,0 0,-0.254 -0.727,0 0,4.689 6.07,0 z M -7.415,0.182 c 0.46,0.678 0.775,1.345 0.945,1.999 L -5.707,1.927 C -5.61,1.878 -5.646,1.818 -5.816,1.745 -5.961,1.187 -6.265,0.533 -6.725,-0.218 l -0.69,0.4 z"
         style="fill:#000000;fill-opacity:1;fill-rule:nonzero;stroke:none"
         id="path88"
         inkscape:connector-curvature="0" />
    </g>
    <g
       id="g90"
       transform="matrix(10.99822,0,0,-13.839042,917.74311,881.57283)">
      <path
         d="m 0,0 -0.509,-0.909 c -0.824,0.291 -1.66,0.74 -2.508,1.346 l 0.473,0.654 C -1.89,0.654 -1.042,0.291 0,0 m -5.307,1.018 0.509,-0.4 C -4.58,0.448 -4.629,0.364 -4.943,0.364 -5.647,-0.242 -6.47,-0.69 -7.416,-0.981 l -0.544,0.727 c 1.138,0.315 2.023,0.739 2.653,1.272 m -2.836,0.182 0,0.69 0.909,0 0,5.053 0.654,-0.182 c 0.34,0.049 0.703,0.157 1.091,0.327 l 0.291,-0.69 C -5.125,6.252 -5.234,6.228 -5.525,6.325 -5.84,6.228 -6.167,6.155 -6.507,6.107 l 0,-0.873 1.2,0 0,-0.69 -1.2,0 0,-0.945 1.164,0 0,-0.691 -1.164,0 0,-1.018 1.673,0 0,2 0.581,0 c 0.194,-0.025 0.206,-0.098 0.036,-0.219 l 0,-1.781 0.764,0 0,2.472 -0.691,0 -0.69,0 0,2.836 0.581,0 c 0.194,-0.025 0.206,-0.097 0.036,-0.219 l 0,-0.545 1.454,0 0,-0.581 -1.454,0 0,-0.909 1.382,0 0,-3.054 1.526,0 0,1.018 -1.017,0 0,0.691 1.017,0 0,0.945 -1.017,0 0,0.69 1.017,0 0,1.018 -1.163,0 0,0.691 1.89,0 0,-5.053 0.8,0 0,-0.69 -8.361,0 z"
         style="fill:#000000;fill-opacity:1;fill-rule:nonzero;stroke:none"
         id="path92"
         inkscape:connector-curvature="0" />
    </g>
    <path
       d="m 1017.12,868.90712 9.6015,0 0,-63.88102 -9.6015,0 0,63.88102 z m 0,9.56278 0,8.55251 -7.9957,0 0,-91.5591 25.5929,0 0,89.55245 -7.9957,0 0,-6.54586 -9.6015,0 z m -35.17229,-63.88102 -7.59976,0 0,-9.56278 7.59976,0 0,-28.67451 6.79691,0 c 2.12264,0.33215 2.25463,1.3424 0.39593,3.01692 l 0,25.65759 15.18855,0 -0.8033,68.42022 c 0,10.39311 -2.6616,15.5966 -7.99572,15.5966 l -6.78591,0 -0.80244,-9.56277 4.79524,0 c 2.13364,0 3.20047,-2.18657 3.20047,-6.54587 l 0.80331,-58.3454 -7.59977,0 0,18.10146 c 0,25.8375 -5.20215,45.28134 -15.59547,58.35925 l -4.38828,-9.56277 c 8.5236,-9.05077 12.79093,-24.64735 12.79093,-46.77598 l 0,-20.12196 z m -26.38471,34.70833 8.79856,0 0,-47.28803 -8.79856,0 0,47.28803 z m 16.79428,9.54892 -16.79428,0 0,10.57303 -7.99571,0 0,-76.95891 24.78999,0 0,66.38588 z"
       style="fill:#000000;fill-opacity:1;fill-rule:nonzero;stroke:none"
       id="path94"
       inkscape:connector-curvature="0" />
    <g
       id="g96"
       transform="matrix(10.99822,0,0,-13.839042,1144.8627,798.48855)">
      <path
         d="m 0,0 0,-0.69 -1.6,0 0,-1.164 1.418,0 0,-0.69 -1.418,0 0,-1.164 1.746,0 0,-0.69 -1.746,0 0,-2.29 -0.727,0 0,8.178 0.691,0 C -1.442,1.466 -1.43,1.393 -1.6,1.272 L -1.6,0 0,0 z m -5.307,-0.69 0,0.69 1.563,0 0,1.49 0.763,0 C -2.763,1.466 -2.775,1.393 -3.017,1.272 l 0,-4.616 0.473,0.109 0,-0.618 -0.473,-0.146 0,-0.145 c 0,-1.115 -0.654,-2.011 -1.963,-2.69 l -0.364,0.654 c 1.042,0.557 1.564,1.187 1.564,1.89 l 0,0.073 -1.273,-0.436 c -0.024,-0.17 -0.085,-0.206 -0.181,-0.109 l -0.182,0.763 1.672,0.473 0,0.982 -1.418,0 0,0.69 1.418,0 0,1.164 -1.563,0 z m -0.982,0.472 -0.981,0 0,-3.417 0.981,0 0,3.417 z m -0.981,-4.108 0,-0.763 -0.727,0 0,5.562 2.435,0 0,-4.799 -1.708,0 z"
         style="fill:#000000;fill-opacity:1;fill-rule:nonzero;stroke:none"
         id="path98"
         inkscape:connector-curvature="0" />
    </g>
    <g
       id="g116"
       transform="matrix(7.6800551,0,0,-9.0181786,451.44454,670.48085)">
      <path
         d="m 0,0 c 0,-13.906 -10.148,-25.178 -22.664,-25.178 -12.518,0 -22.665,11.272 -22.665,25.178"
         style="fill:#4895f2;fill-opacity:1;fill-rule:nonzero;stroke:none"
         id="path118"
         inkscape:connector-curvature="0" />
    </g>
    <g
       id="g120"
       transform="matrix(7.6800551,0,0,-9.0181786,407.92548,724.77484)">
      <path
         d="M 0,0 C 0,0 12.217,7.437 13.988,0.709 16.29,-8.322 -3.896,-13.28 -3.896,-13.28 l 1.51,4.529 c 0,0 12.9,1.612 12.125,7.689 C 9.118,3.794 2.189,-4.111 0.532,-4.25 -1.124,-4.385 0,0 0,0"
         style="fill:#4895f2;fill-opacity:1;fill-rule:nonzero;stroke:none"
         id="path122"
         inkscape:connector-curvature="0" />
    </g>
    <g
       id="g124"
       transform="matrix(7.6800551,0,0,-9.0181786,197.03577,438.3683)">
      <path
         d="m 0,0 c 5.055,-0.802 9.651,-4.982 2.74,-13.637 -3.488,-3.861 -5.639,-6.804 -5.413,-8.203 -0.826,3.168 0.025,5.272 1.552,7.829 1.274,2.136 2.958,3.937 2.553,7.908 -0.311,3.051 -2.865,4.981 -7.098,5.915 0,0 1.153,0.904 5.666,0.188"
         style="fill:#ffffff;fill-opacity:1;fill-rule:nonzero;stroke:none"
         id="path126"
         inkscape:connector-curvature="0" />
    </g>
    <g
       id="g128"
       transform="matrix(7.6800551,0,0,-9.0181786,190.81419,443.43197)">
      <path
         d="m 0,0 c 1.806,-0.623 8.904,-5.23 1.432,-14.321 -2.615,-3.176 -3.521,-5.558 -3.295,-6.958 -0.825,3.168 -0.722,5.272 0.805,7.83 1.274,2.135 2.958,3.936 2.553,7.907 -0.311,3.052 -2.927,4.546 -7.161,5.48 0,0 1.347,1.551 5.666,0.062"
         style="fill:#725c44;fill-opacity:1;fill-rule:nonzero;stroke:none"
         id="path130"
         inkscape:connector-curvature="0" />
    </g>
    <g
       id="g132"
       transform="matrix(7.6800551,0,0,-9.0181786,225.2093,433.09267)">
      <path
         d="m 0,0 c 1.806,-0.624 8.475,-5.085 0.539,-13.945 -2.582,-2.884 -5.162,-5.316 -7.088,-10.555 0,5.47 4.199,8.321 6.241,11.017 1.501,1.983 3.255,3.964 2.851,7.935 -0.312,3.052 -4.7,6.242 -11.877,4.775 0,0 5.015,2.262 9.334,0.773"
         style="fill:#725c44;fill-opacity:1;fill-rule:nonzero;stroke:none"
         id="path134"
         inkscape:connector-curvature="0" />
    </g>
    <g
       id="g136"
       transform="matrix(7.6800551,0,0,-9.0181786,183.3968,708.96683)">
      <path
         d="M 0,0 0,-5.183"
         style="fill:none;stroke:#ffffff;stroke-width:2.08100009;stroke-linecap:round;stroke-linejoin:miter;stroke-miterlimit:10;stroke-opacity:1;stroke-dasharray:none"
         id="path138"
         inkscape:connector-curvature="0" />
    </g>
    <g
       id="g140"
       transform="matrix(7.6800551,0,0,-9.0181786,283.69525,1037.417)">
      <path
         d="m 0,0 -5.266,0 c 0,0 -11.092,15.942 -31.043,6.97"
         style="fill:none;stroke:#725c44;stroke-width:2.6960001;stroke-linecap:butt;stroke-linejoin:miter;stroke-miterlimit:10;stroke-opacity:1;stroke-dasharray:none"
         id="path142"
         inkscape:connector-curvature="0" />
    </g>
    <g
       id="g144"
       transform="matrix(7.6800551,0,0,-9.0181786,257.35112,1026.1614)">
      <path
         d="M 0,0 C 0,0 -8.751,16.266 -32.611,9.584"
         style="fill:none;stroke:#725c44;stroke-width:0.57800001;stroke-linecap:butt;stroke-linejoin:miter;stroke-miterlimit:10;stroke-opacity:1;stroke-dasharray:none"
         id="path146"
         inkscape:connector-curvature="0" />
    </g>
    <g
       id="g148"
       transform="matrix(7.6800551,0,0,-9.0181786,267.15007,1025.3074)">
      <path
         d="M 0,0 C 0,0 -8.755,18.251 -33.694,11.993"
         style="fill:none;stroke:#725c44;stroke-width:0.57800001;stroke-linecap:butt;stroke-linejoin:miter;stroke-miterlimit:10;stroke-opacity:1;stroke-dasharray:none"
         id="path150"
         inkscape:connector-curvature="0" />
    </g>
    <g
       id="g152"
       transform="matrix(7.6800551,0,0,-9.0181786,14.288867,892.83486)">
      <path
         d="M 0,0 C 0,0 23.593,5.777 34.601,-14.976"
         style="fill:none;stroke:#725c44;stroke-width:0.57800001;stroke-linecap:butt;stroke-linejoin:miter;stroke-miterlimit:10;stroke-opacity:1;stroke-dasharray:none"
         id="path154"
         inkscape:connector-curvature="0" />
    </g>
    <g
       id="g156"
       transform="matrix(7.6800551,0,0,-9.0181786,282.91494,1037.417)">
      <path
         d="m 0,0 5.266,0 c 0,0 11.093,15.942 31.043,6.97"
         style="fill:none;stroke:#725c44;stroke-width:2.6960001;stroke-linecap:butt;stroke-linejoin:miter;stroke-miterlimit:10;stroke-opacity:1;stroke-dasharray:none"
         id="path158"
         inkscape:connector-curvature="0" />
    </g>
    <g
       id="g160"
       transform="matrix(7.6800551,0,0,-9.0181786,309.26595,1026.1614)">
      <path
         d="M 0,0 C 0,0 8.751,16.266 32.611,9.584"
         style="fill:none;stroke:#725c44;stroke-width:0.57800001;stroke-linecap:butt;stroke-linejoin:miter;stroke-miterlimit:10;stroke-opacity:1;stroke-dasharray:none"
         id="path162"
         inkscape:connector-curvature="0" />
    </g>
    <g
       id="g164"
       transform="matrix(7.6800551,0,0,-9.0181786,299.46393,1025.3074)">
      <path
         d="M 0,0 C 0,0 8.755,18.251 33.694,11.993"
         style="fill:none;stroke:#725c44;stroke-width:0.57800001;stroke-linecap:butt;stroke-linejoin:miter;stroke-miterlimit:10;stroke-opacity:1;stroke-dasharray:none"
         id="path166"
         inkscape:connector-curvature="0" />
    </g>
    <g
       id="g168"
       transform="matrix(7.6800551,0,0,-9.0181786,552.32821,892.83486)">
      <path
         d="M 0,0 C 0,0 -23.593,5.777 -34.601,-14.976"
         style="fill:none;stroke:#725c44;stroke-width:0.57800001;stroke-linecap:butt;stroke-linejoin:miter;stroke-miterlimit:10;stroke-opacity:1;stroke-dasharray:none"
         id="path170"
         inkscape:connector-curvature="0" />
    </g>
    <g
       id="g22"
       transform="matrix(3.9686128,0,0,-5.7902464,448.89636,595.16618)">
      <path
         d="M 0,0 C -0.465,0.031 -1.21,0.062 -1.769,0.062 -2.327,0.062 -3.04,0.031 -3.599,0 -4.622,4.064 -6.67,11.229 -8.003,15.386 l -0.094,0 C -9.71,11.105 -11.912,4.87 -13.525,0 c -0.404,0.031 -1.148,0.062 -1.738,0.062 -0.589,0 -1.396,-0.031 -1.799,-0.062 -1.334,5.553 -4.343,16.317 -6.018,21.125 l 0.093,0.093 c 1.148,-0.062 2.265,-0.062 2.73,-0.062 0.465,0 1.334,0.031 2.234,0.062 0.992,-4.529 3.009,-12.129 4.25,-16.193 l 0.092,0 c 1.552,4.188 4.033,11.602 5.212,16.193 0.558,-0.062 1.179,-0.062 1.644,-0.062 0.496,0 1.086,0.031 1.489,0.062 1.241,-4.901 3.567,-12.594 4.963,-16.224 l 0.094,0 c 1.55,4.219 3.722,10.92 5.056,16.224 0.403,-0.031 1.179,-0.062 1.52,-0.062 0.31,0 1.148,0.031 1.365,0.062 L 7.817,21.125 C 5.739,15.945 1.954,5.801 0,0"
         style="fill:#000000;fill-opacity:1;fill-rule:nonzero;stroke:none"
         id="path24"
         inkscape:connector-curvature="0" />
    </g>
    <g
       id="g26"
       transform="matrix(3.9686128,0,0,-5.7902464,510.93754,495.83626)">
      <path
         d="m 0,0 c -0.962,-2.109 -2.544,-5.894 -3.351,-8.035 0.807,-0.03 1.924,-0.03 2.823,-0.03 1.024,0 2.389,0 3.32,0.03 C 2.202,-6.205 0.961,-2.513 0,0 m 10.64,-17.155 c -1.086,0.031 -2.109,0.062 -2.854,0.062 -0.465,0 -1.241,-0.031 -2.203,-0.062 -0.465,1.8 -1.396,4.87 -2.233,7.383 -1.055,0.031 -2.606,0.031 -3.785,0.031 -1.21,0 -2.636,0 -3.598,-0.031 -0.931,-2.264 -2.078,-5.615 -2.544,-7.383 -0.341,0.031 -0.93,0.062 -1.334,0.062 -0.527,0 -1.086,-0.031 -1.613,-0.062 l -0.093,0.093 c 3.444,7.259 6.546,14.301 9.338,21.157 l 3.257,0 c 2.326,-6.732 6.173,-17.341 7.755,-21.157 l -0.093,-0.093 z"
         style="fill:#000000;fill-opacity:1;fill-rule:nonzero;stroke:none"
         id="path28"
         inkscape:connector-curvature="0" />
    </g>
    <g
       id="g30"
       transform="matrix(3.9686128,0,0,-5.7902464,594.64415,542.71758)">
      <path
         d="m 0,0 0,-1.241 c 0,-2.792 0.062,-5.336 0.248,-7.817 -0.837,0.031 -1.613,0.062 -2.389,0.062 -0.775,0 -1.551,-0.031 -2.419,-0.062 0.186,2.481 0.248,5.025 0.248,7.817 l 0,1.148 c -1.582,2.947 -5.211,9.182 -7.104,12.191 l 0.093,0.062 c 1.179,-0.031 2.14,-0.062 2.978,-0.062 0.931,0 1.582,0.031 2.389,0.062 1.209,-2.637 3.35,-6.763 5.025,-9.74 l 0.093,0 c 1.707,3.04 3.878,7.476 4.747,9.74 0.589,-0.031 1.085,-0.062 1.458,-0.062 0.496,0 1.395,0.031 1.675,0.062 L 7.135,12.098 C 5.335,9.399 1.582,3.133 0,0"
         style="fill:#000000;fill-opacity:1;fill-rule:nonzero;stroke:none"
         id="path32"
         inkscape:connector-curvature="0" />
    </g>
    <g
       id="g34"
       transform="matrix(3.9686128,0,0,-5.7902464,692.14058,557.44797)">
      <path
         d="m 0,0 0.124,0.031 0,3.754 c 0,3.722 -0.217,8.438 -0.621,10.919 0.683,-0.031 1.241,-0.062 1.676,-0.062 0.403,0 0.961,0.031 1.272,0.062 C 2.202,12.223 2.047,7.507 2.047,3.785 l 0,-2.482 c 0,-3.164 0.062,-6.142 0.124,-7.848 l -2.854,0 c -2.481,3.257 -8.065,10.051 -11.818,14.332 -0.218,0.248 -0.497,0.558 -0.807,0.961 l -0.093,-0.031 0,-4.312 c 0,-3.722 0.217,-8.438 0.62,-10.919 -0.527,0.031 -1.116,0.062 -1.52,0.062 -0.403,0 -1.054,-0.031 -1.458,-0.062 0.248,2.481 0.404,7.197 0.404,10.919 l 0,1.551 c 0,3.909 -0.094,7.477 -0.124,8.81 l 3.226,0 C -8.438,10.144 -3.94,4.715 -0.807,1.024 -0.589,0.776 -0.311,0.465 0,0"
         style="fill:#000000;fill-opacity:1;fill-rule:nonzero;stroke:none"
         id="path36"
         inkscape:connector-curvature="0" />
    </g>
    <g
       id="g38"
       transform="matrix(3.9686128,0,0,-5.7902464,720.81651,595.16618)">
      <path
         d="m 0,0 c 0.155,2.481 0.249,6.577 0.249,9.368 l 0,3.102 c 0,2.792 -0.094,6.267 -0.249,8.748 0.714,-0.031 2.358,-0.093 3.351,-0.093 2.047,0 6.048,0.031 8.096,0.093 -0.031,-0.589 -0.031,-0.93 -0.031,-1.178 0,-0.218 0,-0.59 0.031,-1.148 -1.334,0.248 -4.312,0.434 -6.732,0.434 -0.062,-1.52 -0.124,-3.94 -0.124,-6.297 l 0,-0.962 c 3.102,0 5.119,0.155 6.266,0.31 -0.03,-0.589 -0.03,-0.961 -0.03,-1.21 0,-0.217 0,-0.589 0.03,-1.147 -1.147,0.155 -3.164,0.248 -6.266,0.248 l 0,-1.117 c 0,-2.668 0.062,-5.832 0.124,-7.259 2.203,0 4.654,0.124 6.887,0.527 -0.031,-0.62 -0.031,-0.992 -0.031,-1.24 0,-0.218 0,-0.558 0.031,-1.179 C 10.641,0.031 9.213,0.031 7.725,0.062 6.235,0.093 4.685,0.093 3.351,0.093 2.513,0.093 0.714,0.031 0,0"
         style="fill:#000000;fill-opacity:1;fill-rule:nonzero;stroke:none"
         id="path40"
         inkscape:connector-curvature="0" />
    </g>
    <g
       id="g42"
       transform="matrix(3.9686128,0,0,-5.7902464,847.9845,594.80718)">
      <path
         d="m 0,0 c -0.775,0 -1.551,-0.031 -2.419,-0.062 0.154,2.481 0.248,6.266 0.248,9.058 l 0,1.396 c -1.582,0.031 -3.412,0.031 -5.181,0.031 -1.892,0 -3.35,0 -4.622,-0.031 l 0,-1.396 c 0,-2.761 0.093,-6.577 0.248,-9.058 -0.868,0.031 -1.644,0.062 -2.42,0.062 -0.775,0 -1.551,-0.031 -2.419,-0.062 0.155,2.481 0.248,6.577 0.248,9.368 l 0,3.102 c 0,2.792 -0.093,6.267 -0.248,8.748 0.868,-0.031 1.644,-0.062 2.419,-0.062 0.776,0 1.552,0.031 2.42,0.062 -0.155,-2.481 -0.248,-4.808 -0.248,-7.6 l 0,-1.085 c 1.458,-0.032 2.885,-0.032 4.622,-0.032 1.675,0 3.94,0 5.181,0.032 l 0,1.054 c 0,2.792 -0.094,5.15 -0.248,7.631 0.868,-0.031 1.644,-0.062 2.419,-0.062 0.775,0 1.551,0.031 2.42,0.062 C 2.265,18.675 2.171,15.2 2.171,12.408 l 0,-3.102 C 2.171,6.515 2.265,2.419 2.42,-0.062 1.551,-0.031 0.775,0 0,0"
         style="fill:#000000;fill-opacity:1;fill-rule:nonzero;stroke:none"
         id="path44"
         inkscape:connector-curvature="0" />
    </g>
    <g
       id="g46"
       transform="matrix(3.643545,0,0,-4.4903333,457.73728,707.55753)">
      <path
         d="m 0,0 c 0,-1.62 0.853,-2.303 1.99,-2.303 1.023,0 1.933,0.74 2.132,1.564 C 4.207,0.199 4.236,1.933 4.236,3.127 1.251,2.587 0,1.961 0,0 m 0.256,-4.292 c -2.047,0 -3.866,1.222 -3.866,3.809 0,2.302 1.364,3.496 4.008,4.008 3.212,0.625 3.809,0.881 3.809,1.848 l 0,0.313 c 0,1.478 -0.625,2.7 -2.644,2.7 -1.421,0 -2.529,-0.938 -2.842,-2.871 l -0.626,0 C -2.047,6.624 -2.331,7.59 -2.559,8.159 -1.507,9.21 0.654,9.95 2.644,9.95 c 4.463,0 5.344,-2.218 5.344,-5.146 0,-1.336 -0.142,-4.008 -0.142,-5.458 0,-1.364 0.256,-2.274 1.45,-2.274 0.227,0 0.426,0 0.597,0.057 l 0,-0.768 C 9.182,-3.98 8.017,-4.236 6.908,-4.236 c -1.734,0 -2.53,0.797 -2.672,1.933 -0.654,-0.909 -1.933,-1.989 -3.98,-1.989"
         style="fill:#000000;fill-opacity:1;fill-rule:nonzero;stroke:none"
         id="path48"
         inkscape:connector-curvature="0" />
    </g>
    <g
       id="g50"
       transform="matrix(3.643545,0,0,-4.4903333,510.46904,673.73095)">
      <path
         d="m 0,0 0.113,0 c 0.995,1.308 2.559,2.246 4.549,2.246 3.639,0 4.577,-2.189 4.577,-4.975 0,-0.966 -0.086,-2.303 -0.086,-3.667 l 0,-0.341 c 0,-1.251 0.057,-3.753 0.142,-4.889 -0.568,0.028 -1.279,0.056 -1.989,0.056 -0.711,0 -1.422,-0.028 -1.99,-0.056 0.085,1.762 0.142,5.031 0.142,7.163 l 0,0.824 c 0,1.734 -0.285,3.724 -2.331,3.724 -1.99,0 -3.042,-1.478 -3.042,-4.036 l 0,-1.933 c 0,-1.706 0.057,-4.122 0.199,-5.742 -0.625,0.028 -1.336,0.056 -2.047,0.056 -0.71,0 -1.421,-0.028 -2.047,-0.056 0.143,1.591 0.2,4.747 0.2,6.452 l 0,1.308 c 0,1.705 -0.057,3.951 -0.2,5.827 0.626,-0.028 1.337,-0.056 2.047,-0.056 0.711,0 1.422,0.028 1.905,0.056 C 0.028,1.365 0,0.625 0,0"
         style="fill:#000000;fill-opacity:1;fill-rule:nonzero;stroke:none"
         id="path52"
         inkscape:connector-curvature="0" />
    </g>
    <g
       id="g54"
       transform="matrix(3.643545,0,0,-4.4903333,577.59889,670.28417)">
      <path
         d="m 0,0 c -2.161,0 -3.326,-2.388 -3.326,-5.572 0,-2.729 1.023,-5.344 3.212,-5.344 2.104,0 3.241,2.388 3.241,5.43 C 3.127,-2.559 2.445,0 0,0 m 4.833,-12.337 c -0.711,0 -1.394,-0.029 -1.905,-0.057 0.057,0.739 0.085,1.478 0.085,2.16 l -0.057,0 c -0.597,-1.194 -1.99,-2.473 -4.633,-2.473 -4.009,0 -5.686,3.525 -5.686,7.107 0,3.61 1.905,7.192 6.282,7.192 2.247,0 3.383,-0.882 4.037,-1.848 l 0.057,0 0,0.682 c 0,2.559 -0.085,6.226 -0.199,8.5 0.569,-0.029 1.251,-0.057 1.961,-0.057 0.711,0 1.422,0.028 2.047,0.057 C 6.708,6.652 6.624,2.132 6.624,-0.426 l 0,-3.383 c 0,-2.559 0.084,-6.283 0.198,-8.585 -0.625,0.028 -1.279,0.057 -1.989,0.057"
         style="fill:#000000;fill-opacity:1;fill-rule:nonzero;stroke:none"
         id="path56"
         inkscape:connector-curvature="0" />
    </g>
    <g
       id="g58"
       transform="matrix(4.9335091,0,0,-5.7142113,718.34905,650.49315)">
      <path
         d="m 0,0 -0.745,-0.062 c -0.651,2.327 -2.636,3.413 -5.366,3.413 -4.436,0 -7.538,-2.948 -7.538,-9.121 0,-5.522 2.544,-8.996 7.941,-8.996 2.203,0 4.405,0.776 5.739,2.389 l 0.372,-0.124 c 0,-0.931 -0.186,-2.203 -0.31,-2.575 -1.303,-0.931 -3.722,-1.768 -6.824,-1.768 -7.384,0 -11.757,3.846 -11.757,11.043 0,6.794 4.436,10.951 11.787,10.951 3.444,0 6.143,-0.776 7.57,-1.458 C 0.589,2.916 0.217,1.489 0,0"
         style="fill:#000000;fill-opacity:1;fill-rule:nonzero;stroke:none"
         id="path60"
         inkscape:connector-curvature="0" />
    </g>
    <g
       id="g62"
       transform="matrix(4.9335091,0,0,-5.7142113,788.28289,630.10539)">
      <path
         d="m 0,0 c -4.033,0 -6.359,-3.165 -6.359,-9.399 0,-6.081 2.326,-9.338 6.359,-9.338 4.033,0 6.39,3.226 6.39,9.338 C 6.39,-3.351 4.033,0 0,0 m 0,-20.474 c -6.949,0 -11.292,4.312 -11.292,11.075 0,6.762 4.343,11.074 11.292,11.074 7.135,0 11.323,-4.219 11.323,-11.074 0,-6.67 -4.344,-11.075 -11.323,-11.075"
         style="fill:#000000;fill-opacity:1;fill-rule:nonzero;stroke:none"
         id="path64"
         inkscape:connector-curvature="0" />
    </g>
    <g
       id="g66"
       transform="matrix(4.9335091,0,0,-5.7142113,880.55738,623.72436)">
      <path
         d="m 0,0 c 2.047,0 6.049,0.031 8.097,0.093 -0.032,-0.59 -0.032,-0.931 -0.032,-1.179 0,-0.217 0,-0.589 0.032,-1.148 C 6.763,-1.985 3.785,-1.799 1.396,-1.799 1.334,-2.885 1.272,-5.894 1.272,-8.221 l 0,-0.837 c 3.071,0 5.087,0.155 6.235,0.31 -0.031,-0.589 -0.031,-0.962 -0.031,-1.21 0,-0.217 0,-0.589 0.031,-1.179 -1.148,0.186 -3.164,0.28 -6.235,0.28 l 0,-1.179 c 0,-2.761 0.093,-6.608 0.248,-9.089 -0.9,0.03 -1.675,0.062 -2.451,0.062 -0.775,0 -1.551,-0.032 -2.42,-0.062 0.156,2.481 0.249,6.576 0.249,9.368 l 0,3.102 c 0,2.792 -0.093,6.266 -0.249,8.748 C -2.637,0.062 -0.993,0 0,0"
         style="fill:#000000;fill-opacity:1;fill-rule:nonzero;stroke:none"
         id="path68"
         inkscape:connector-curvature="0" />
    </g>
    <g
       id="g70"
       transform="matrix(4.9335091,0,0,-5.7142113,954.31911,623.72436)">
      <path
         d="m 0,0 c 2.047,0 6.049,0.031 8.097,0.093 -0.032,-0.59 -0.032,-0.931 -0.032,-1.179 0,-0.217 0,-0.589 0.032,-1.148 C 6.763,-1.985 3.785,-1.799 1.396,-1.799 1.334,-2.885 1.272,-5.894 1.272,-8.221 l 0,-0.837 c 3.071,0 5.087,0.155 6.235,0.31 -0.031,-0.589 -0.031,-0.962 -0.031,-1.21 0,-0.217 0,-0.589 0.031,-1.179 -1.148,0.186 -3.164,0.28 -6.235,0.28 l 0,-1.179 c 0,-2.761 0.093,-6.608 0.248,-9.089 -0.9,0.03 -1.675,0.062 -2.451,0.062 -0.775,0 -1.551,-0.032 -2.42,-0.062 0.156,2.481 0.249,6.576 0.249,9.368 l 0,3.102 c 0,2.792 -0.093,6.266 -0.249,8.748 C -2.637,0.062 -0.993,0 0,0"
         style="fill:#000000;fill-opacity:1;fill-rule:nonzero;stroke:none"
         id="path72"
         inkscape:connector-curvature="0" />
    </g>
    <g
       id="g74"
       transform="matrix(4.9335091,0,0,-5.7142113,1011.5506,744.43993)">
      <path
         d="m 0,0 c 0.155,2.481 0.249,6.577 0.249,9.368 l 0,3.102 c 0,2.792 -0.094,6.267 -0.249,8.748 0.714,-0.031 2.358,-0.093 3.351,-0.093 2.047,0 6.048,0.031 8.096,0.093 -0.031,-0.589 -0.031,-0.93 -0.031,-1.178 0,-0.218 0,-0.59 0.031,-1.148 -1.334,0.248 -4.312,0.434 -6.732,0.434 -0.062,-1.52 -0.124,-3.94 -0.124,-6.297 l 0,-0.962 c 3.102,0 5.119,0.155 6.266,0.31 -0.03,-0.589 -0.03,-0.961 -0.03,-1.21 0,-0.217 0,-0.589 0.03,-1.147 -1.147,0.155 -3.164,0.248 -6.266,0.248 l 0,-1.117 c 0,-2.668 0.062,-5.832 0.124,-7.259 2.203,0 4.654,0.124 6.887,0.527 -0.031,-0.62 -0.031,-0.992 -0.031,-1.24 0,-0.218 0,-0.558 0.031,-1.179 C 10.641,0.031 9.213,0.031 7.725,0.062 6.235,0.093 4.685,0.093 3.351,0.093 2.513,0.093 0.714,0.031 0,0"
         style="fill:#000000;fill-opacity:1;fill-rule:nonzero;stroke:none"
         id="path76"
         inkscape:connector-curvature="0" />
    </g>
    <g
       id="g78"
       transform="matrix(4.9335091,0,0,-5.7142113,1087.9139,744.43993)">
      <path
         d="m 0,0 c 0.155,2.481 0.248,6.577 0.248,9.368 l 0,3.102 c 0,2.792 -0.093,6.267 -0.248,8.748 0.713,-0.031 2.357,-0.093 3.35,-0.093 2.047,0 6.049,0.031 8.097,0.093 -0.031,-0.589 -0.031,-0.93 -0.031,-1.178 0,-0.218 0,-0.59 0.031,-1.148 -1.334,0.248 -4.312,0.434 -6.732,0.434 -0.062,-1.52 -0.124,-3.94 -0.124,-6.297 l 0,-0.962 c 3.102,0 5.118,0.155 6.266,0.31 -0.031,-0.589 -0.031,-0.961 -0.031,-1.21 0,-0.217 0,-0.589 0.031,-1.147 -1.148,0.155 -3.164,0.248 -6.266,0.248 l 0,-1.117 c 0,-2.668 0.062,-5.832 0.124,-7.259 2.202,0 4.653,0.124 6.887,0.527 -0.031,-0.62 -0.031,-0.992 -0.031,-1.24 0,-0.218 0,-0.558 0.031,-1.179 C 10.64,0.031 9.213,0.031 7.724,0.062 6.235,0.093 4.684,0.093 3.35,0.093 2.513,0.093 0.713,0.031 0,0"
         style="fill:#000000;fill-opacity:1;fill-rule:nonzero;stroke:none"
         id="path80"
         inkscape:connector-curvature="0" />
    </g>
    <g
       id="g100"
       transform="matrix(13.817815,0,0,-9.3923796,625.72168,984.21896)">
      <path
         d="m 0,0 0,-1.06 -0.578,-1.299 -0.529,0 0.481,1.299 -0.481,0 0,1.06 L 0,0 z m -1.107,4.382 1.107,0 0,-1.059 -1.107,0 0,1.059 z"
         style="fill:#000000;fill-opacity:1;fill-rule:nonzero;stroke:none"
         id="path102"
         inkscape:connector-curvature="0" />
    </g>
    <g
       id="g104"
       transform="matrix(7.4894783,0,0,-10.182663,708.56622,934.58106)">
      <path
         d="m 0,0 c -0.751,-0.122 -1.515,-0.218 -2.29,-0.291 l 0,-0.763 3.053,0 0,-0.691 -1.236,0 0,-2.399 -0.727,0 0,2.399 -1.09,0 c 0,-1.308 -0.606,-2.169 -1.818,-2.581 l -0.363,0.764 c 0.969,0.291 1.454,0.896 1.454,1.817 l 0,2.182 0.545,-0.183 c 0.775,0.121 1.538,0.279 2.29,0.473 l 0.4,-0.618 C 0.242,-0.061 0.169,-0.097 0,0 m -1.2,-5.307 -4.035,0 0,-1.163 4.035,0 0,1.163 z m 0.727,0.691 0,-2.908 -0.727,0 0,0.363 -4.034,0 0,-0.472 -0.727,0 0,3.017 5.488,0 z m -3.053,3.707 -1.454,0 0,-0.908 1.526,0.291 0.073,-0.582 -1.599,-0.364 0,-1.199 c 0,-0.388 -0.194,-0.582 -0.582,-0.582 l -0.654,0 -0.145,0.691 0.508,0 c 0.097,0 0.146,0.048 0.146,0.145 l 0,0.8 -1.127,-0.218 c -0.024,-0.17 -0.085,-0.207 -0.182,-0.109 l -0.254,0.799 1.563,0.219 0,1.017 -1.381,0 0,0.691 1.381,0 0,1.018 0.69,0 C -4.823,0.775 -4.811,0.703 -4.98,0.582 l 0,-0.8 1.454,0 0,-0.691 z"
         style="fill:#000000;fill-opacity:1;fill-rule:nonzero;stroke:none"
         id="path106"
         inkscape:connector-curvature="0" />
    </g>
    <g
       id="g108"
       transform="matrix(7.4894783,0,0,-10.182663,773.08096,953.08702)">
      <path
         d="m 0,0 c -0.169,0.121 -0.363,0.242 -0.582,0.363 l 0.291,0.4 C -0.024,0.618 0.218,0.473 0.437,0.327 0.678,0.473 0.896,0.63 1.091,0.8 L 1.454,0.509 C 1.575,0.412 1.551,0.363 1.381,0.363 1.236,0.242 1.078,0.133 0.909,0.036 1.127,-0.085 1.321,-0.206 1.491,-0.327 L 1.236,-0.8 C 0.994,-0.654 0.739,-0.497 0.473,-0.327 0.061,-0.594 -0.303,-0.776 -0.618,-0.873 l -0.291,0.437 C -0.569,-0.315 -0.267,-0.17 0,0 m -0.727,0.727 -0.254,0.436 c 0.387,0.146 0.666,0.278 0.836,0.4 -0.194,0.097 -0.388,0.206 -0.582,0.327 l 0.291,0.364 C -0.169,2.157 0.085,2.036 0.327,1.89 0.521,2.06 0.727,2.229 0.945,2.399 L 1.309,2.108 C 1.43,2.011 1.405,1.963 1.236,1.963 1.066,1.841 0.921,1.72 0.8,1.6 0.994,1.478 1.175,1.369 1.345,1.272 L 1.018,0.873 C 0.8,0.993 0.582,1.127 0.364,1.272 0.048,1.054 -0.315,0.873 -0.727,0.727 m 3.417,-3.308 -1.926,-0.763 0,-0.146 3.271,0 0,-0.69 -3.271,0 0,-1.018 c 0,-0.387 -0.159,-0.582 -0.473,-0.582 l -0.836,0 -0.182,0.691 0.618,0 c 0.097,0 0.146,0.049 0.146,0.145 l 0,0.764 -3.417,0 0,0.69 3.417,0 0,0.509 0.327,-0.072 0.8,0.327 -3.381,0 0,0.581 4.289,0 0.146,0.146 0.581,-0.4 C 2.945,-2.544 2.908,-2.605 2.69,-2.581 M -2.872,2.254 -2.326,2.108 -1.309,2.363 -1.018,2 C -0.872,1.83 -0.909,1.769 -1.126,1.817 l -1.127,-0.109 0,-0.472 1.127,0 0,-0.582 -1.127,0 0,-0.508 1.127,0 0,-0.582 -1.127,0 0,-0.545 5.125,0 0,0.545 -1.127,0 0,0.582 1.127,0 0,0.508 -1.127,0 0,0.582 1.127,0 0,0.472 -1.127,0 0,0.582 1.745,0 0,-3.271 0.763,0 0,-1.527 -0.727,0 0,0.945 -6.398,0 0,-0.945 -0.727,0 0,1.527 0.727,0 0,3.235 z"
         style="fill:#000000;fill-opacity:1;fill-rule:nonzero;stroke:none"
         id="path110"
         inkscape:connector-curvature="0" />
    </g>
    <path
       d="m 889.98014,974.55212 13.06918,0 0,-9.25609 -13.06918,0 0,9.25609 z m 0,-15.17221 13.06918,0 0,-8.14613 -13.06918,0 0,8.14613 z m 0,-14.06226 13.06918,0 0,-8.51271 -13.06918,0 0,8.51271 z m 17.69761,-14.43902 0,49.59974 -5.99153,0 0,22.57493 c 0,0.9878 0.36664,1.4868 1.09342,1.4868 l 1.90235,0 c 0.90622,0 1.36309,-0.7438 1.36309,-2.2301 l 0.26969,-8.13588 4.62842,1.85314 -0.54698,9.62264 c -0.17979,3.2075 -1.45299,4.8062 -3.81221,4.8062 l -5.44476,0 c -2.71868,0 -4.07438,-1.843 -4.07438,-5.5495 l 0,-24.42823 -2.99577,0 0,2.21986 c 0,14.07247 -3.18306,24.67257 -9.53405,31.83097 l -3.5423,-5.1829 c 5.62467,-5.1831 8.44064,-14.18449 8.44064,-27.01467 l 0,-1.85326 -2.17943,0 -1.90224,0 0,-49.59974 22.32604,0 z m -35.93447,25.53812 5.99153,0 0,-6.29289 -5.99153,0 0,6.29289 z m -12.52241,42.94029 7.89387,0 0,-5.54952 -7.89387,0 0,5.54952 z m 0,-9.98923 7.89387,0 0,-5.54952 -7.89387,0 0,5.54952 z m 0,-9.99936 7.89387,0 0,-5.18293 -7.89387,0 0,5.18293 z m -4.08929,-22.9517 5.71456,0 0,-6.29289 -5.71456,0 0,6.29289 z m 9.53416,4.43964 -13.33875,0 0,-15.17217 7.34712,0 0,-5.18297 -9.80374,0 0,-5.91613 9.80374,0 0,-7.77956 4.35885,0 c 1.44548,0.24439 1.53538,0.98773 0.26969,2.21983 l 0,5.55973 5.98412,0 0,-7.77956 4.35886,0 c 1.45288,0.24439 1.54277,0.98773 0.27675,2.21983 l 0,5.55973 9.52665,0 0,5.91613 -9.52665,0 0,5.18297 7.61679,0 0,15.17217 -13.60832,0 0,-15.17217 1.35559,0 0,-5.18297 -5.98413,0 0,5.18297 1.3631,0 0,15.17217 z m -15.2486,24.0617 -2.17943,-5.92637 c 4.53864,-4.68407 8.8001,-10.60016 12.79949,-17.75857 l 3.8047,1.84306 c 1.2732,0.49854 1.09341,1.10992 -0.53925,1.85324 -0.91374,1.48668 -1.99976,3.08536 -3.26545,4.81641 l 7.07754,0 c 0.90623,-2.21982 1.90235,-4.81641 2.98837,-7.76937 l 4.08929,1.47648 c 1.0859,0.48877 0.90611,1.10991 -0.5471,1.85325 -0.72644,1.47648 -1.3631,2.95297 -1.90235,4.43964 l 10.88975,0 0,4.43966 -10.88975,0 0,5.18293 8.71032,0 0,4.43971 -8.71032,0 0,5.55965 8.71032,0 0,4.43971 -8.71032,0 0,5.54952 11.15932,0 0,5.92636 -23.68174,0 0,5.5393 -4.62843,0 0,-32.19758 c -1.4605,1.98562 -3.18306,4.07311 -5.1753,6.29297"
       style="fill:#000000;fill-opacity:1;fill-rule:nonzero;stroke:none"
       id="path112"
       inkscape:connector-curvature="0" />
    <path
       d="m 1002.0663,976.40538 -13.88552,0 0,21.09841 13.88552,0 0,-21.09841 z m -11.98328,-7.0261 0,-41.09722 5.16779,0 c 1.45299,0.25415 1.54289,0.9979 0.27686,2.22999 l 0,12.95235 13.06903,0 0,7.03623 -13.06903,0 0,18.87865 11.97563,0 0,40.34372 -5.4373,0 0,-5.1829 -13.88555,0 0,6.6594 -5.45239,0 0,-41.82022 7.35474,0 z m -13.60832,23.31831 c 1.80495,5.1728 2.98825,9.74471 3.53502,13.68551 l -4.35886,1.8532 c -0.72644,-4.684 -1.90235,-9.50035 -3.53502,-14.42878 l 4.35886,-1.10993 z m -6.80797,-38.86724 -3.27284,-0.37716 c 0.90623,-4.43965 1.54277,-9.00147 1.90974,-13.69568 l 3.26545,0.37635 c 1.26569,0.48877 1.26569,1.23211 0,2.21982 -0.36664,3.70649 -1.00363,7.53517 -1.90235,11.47585 m 3.53502,-18.51206 -7.89388,0 0,22.94153 7.89388,0 0,-22.94153 z m -4.08178,58.48924 c 0.90623,4.68396 1.72267,9.50039 2.44911,14.42879 l -4.62854,1.4867 c -0.72644,-5.4375 -1.45288,-10.4882 -2.17192,-15.1824 l 4.35135,-0.73309 z m -7.62419,1.09969 c 0.54698,5.6921 0.90622,10.6103 1.09341,14.8158 l -4.90562,0 c 0,-3.7065 -0.0897,-8.6451 -0.26957,-14.8158 l 4.08178,0 z m -5.1678,-40.71029 c -0.36664,-4.43964 -0.91373,-9.00146 -1.64017,-13.69568 l 2.99576,-1.1099 c 0.90623,4.93859 1.45299,9.62261 1.63278,14.06225 l -2.98837,0.74375 z m 4.35135,-18.87864 -7.34711,0 0,22.94153 7.34711,0 0,-22.94153 z m -14.15508,74.77133 c 1.63278,-4.6942 2.89847,-9.9892 3.81221,-15.9156 l 4.08166,1.10993 c -0.90622,7.15837 -1.99964,12.70807 -3.26533,16.65897 l -4.62854,-1.8533 z m 34.02472,-27.02478 0,5.92626 -31.30604,2.58645 c -0.90623,2.22998 -1.54277,2.10775 -1.90235,-0.3666 l -1.09341,-6.65945 14.43216,-0.37638 0,-7.76938 -11.97565,0 0,-5.91614 11.97565,0 0,-6.30307 -5.99152,0 -5.98413,0 0,-34.79415 29.12661,0 0,34.79415 -12.52242,0 0,6.30307 12.79199,0 0,5.91614 -12.79199,0 0,7.40278 15.2411,-0.74287 z"
       style="fill:#000000;fill-opacity:1;fill-rule:nonzero;stroke:none"
       id="path114"
       inkscape:connector-curvature="0" />
  </g>
</svg>
