<?xml version="1.0" encoding="UTF-8" standalone="no"?>
<!-- Created with Inkscape (http://www.inkscape.org/) -->

<svg
   xmlns:dc="http://purl.org/dc/elements/1.1/"
   xmlns:cc="http://creativecommons.org/ns#"
   xmlns:rdf="http://www.w3.org/1999/02/22-rdf-syntax-ns#"
   xmlns:svg="http://www.w3.org/2000/svg"
   xmlns="http://www.w3.org/2000/svg"
   xmlns:sodipodi="http://sodipodi.sourceforge.net/DTD/sodipodi-0.dtd"
   xmlns:inkscape="http://www.inkscape.org/namespaces/inkscape"
   width="1200"
   height="630"
   id="svg3147"
   version="1.1"
   inkscape:version="0.48.4 r9939"
   sodipodi:docname="facebook.png">
  <defs
     id="defs3149" />
  <sodipodi:namedview
     id="base"
     pagecolor="#ffffff"
     bordercolor="#666666"
     borderopacity="1.0"
     inkscape:pageopacity="0.0"
     inkscape:pageshadow="2"
     inkscape:zoom="0.64"
     inkscape:cx="366.09539"
     inkscape:cy="427.53354"
     inkscape:document-units="px"
     inkscape:current-layer="layer1"
     showgrid="true"
     showguides="false"
     inkscape:window-width="1920"
     inkscape:window-height="1027"
     inkscape:window-x="0"
     inkscape:window-y="0"
     inkscape:window-maximized="1">
    <inkscape:grid
       type="xygrid"
       id="grid3576"
       empspacing="5"
       visible="true"
       enabled="true"
       snapvisiblegridlinesonly="true" />
  </sodipodi:namedview>
  <metadata
     id="metadata3152">
    <rdf:RDF>
      <cc:Work
         rdf:about="">
        <dc:format>image/svg+xml</dc:format>
        <dc:type
           rdf:resource="http://purl.org/dc/dcmitype/StillImage" />
        <dc:title></dc:title>
      </cc:Work>
    </rdf:RDF>
  </metadata>
  <g
     inkscape:label="Layer 1"
     inkscape:groupmode="layer"
     id="layer1"
     transform="translate(0,-422.36218)">
    <g
       id="g116"
       transform="matrix(4.1589442,0,0,-4.817861,282.16936,851.53329)">
      <path
         d="m 0,0 c 0,-13.906 -10.148,-25.178 -22.664,-25.178 -12.518,0 -22.665,11.272 -22.665,25.178"
         style="fill:#4895f2;fill-opacity:1;fill-rule:nonzero;stroke:none"
         id="path118"
         inkscape:connector-curvature="0" />
    </g>
    <g
       id="g120"
       transform="matrix(4.1589442,0,0,-4.817861,258.60269,880.53924)">
      <path
         d="M 0,0 C 0,0 12.217,7.437 13.988,0.709 16.29,-8.322 -3.896,-13.28 -3.896,-13.28 l 1.51,4.529 c 0,0 12.9,1.612 12.125,7.689 C 9.118,3.794 2.189,-4.111 0.532,-4.25 -1.124,-4.385 0,0 0,0"
         style="fill:#4895f2;fill-opacity:1;fill-rule:nonzero;stroke:none"
         id="path122"
         inkscape:connector-curvature="0" />
    </g>
    <g
       id="g124"
       transform="matrix(4.1589442,0,0,-4.817861,144.40057,727.52975)">
      <path
         d="m 0,0 c 5.055,-0.802 9.651,-4.982 2.74,-13.637 -3.488,-3.861 -5.639,-6.804 -5.413,-8.203 -0.826,3.168 0.025,5.272 1.552,7.829 1.274,2.136 2.958,3.937 2.553,7.908 -0.311,3.051 -2.865,4.981 -7.098,5.915 0,0 1.153,0.904 5.666,0.188"
         style="fill:#ffffff;fill-opacity:1;fill-rule:nonzero;stroke:none"
         id="path126"
         inkscape:connector-curvature="0" />
    </g>
    <g
       id="g128"
       transform="matrix(4.1589442,0,0,-4.817861,141.03143,730.23496)">
      <path
         d="m 0,0 c 1.806,-0.623 8.904,-5.23 1.432,-14.321 -2.615,-3.176 -3.521,-5.558 -3.295,-6.958 -0.825,3.168 -0.722,5.272 0.805,7.83 1.274,2.135 2.958,3.936 2.553,7.907 -0.311,3.052 -2.927,4.546 -7.161,5.48 0,0 1.347,1.551 5.666,0.062"
         style="fill:#725c44;fill-opacity:1;fill-rule:nonzero;stroke:none"
         id="path130"
         inkscape:connector-curvature="0" />
    </g>
    <g
       id="g132"
       transform="matrix(4.1589442,0,0,-4.817861,159.65725,724.71131)">
      <path
         d="m 0,0 c 1.806,-0.624 8.475,-5.085 0.539,-13.945 -2.582,-2.884 -5.162,-5.316 -7.088,-10.555 0,5.47 4.199,8.321 6.241,11.017 1.501,1.983 3.255,3.964 2.851,7.935 -0.312,3.052 -4.7,6.242 -11.877,4.775 0,0 5.015,2.262 9.334,0.773"
         style="fill:#725c44;fill-opacity:1;fill-rule:nonzero;stroke:none"
         id="path134"
         inkscape:connector-curvature="0" />
    </g>
    <g
       id="g136"
       transform="matrix(4.1589442,0,0,-4.817861,137.01472,872.09399)">
      <path
         d="M 0,0 0,-5.183"
         style="fill:none;stroke:#ffffff;stroke-width:2.08100009;stroke-linecap:round;stroke-linejoin:miter;stroke-miterlimit:10;stroke-opacity:1;stroke-dasharray:none"
         id="path138"
         inkscape:connector-curvature="0" />
    </g>
    <g
       id="g140"
       transform="matrix(4.1589442,0,0,-4.817861,191.32887,1031.7046)">
      <path
         d="m 0,0 -5.266,0 c 0,0 -11.092,15.942 -31.043,6.97"
         style="fill:none;stroke:#725c44;stroke-width:2.6960001;stroke-linecap:butt;stroke-linejoin:miter;stroke-miterlimit:10;stroke-opacity:1;stroke-dasharray:none"
         id="path142"
         inkscape:connector-curvature="0" />
    </g>
    <g
       id="g144"
       transform="matrix(4.1589442,0,0,-4.817861,177.06286,1025.6914)">
      <path
         d="M 0,0 C 0,0 -8.751,16.266 -32.611,9.584"
         style="fill:none;stroke:#725c44;stroke-width:0.57800001;stroke-linecap:butt;stroke-linejoin:miter;stroke-miterlimit:10;stroke-opacity:1;stroke-dasharray:none"
         id="path146"
         inkscape:connector-curvature="0" />
    </g>
    <g
       id="g148"
       transform="matrix(4.1589442,0,0,-4.817861,182.36924,1025.2352)">
      <path
         d="M 0,0 C 0,0 -8.755,18.251 -33.694,11.993"
         style="fill:none;stroke:#725c44;stroke-width:0.57800001;stroke-linecap:butt;stroke-linejoin:miter;stroke-miterlimit:10;stroke-opacity:1;stroke-dasharray:none"
         id="path150"
         inkscape:connector-curvature="0" />
    </g>
    <g
       id="g152"
       transform="matrix(4.1589442,0,0,-4.817861,45.438501,954.46321)">
      <path
         d="M 0,0 C 0,0 23.593,5.777 34.601,-14.976"
         style="fill:none;stroke:#725c44;stroke-width:0.57800001;stroke-linecap:butt;stroke-linejoin:miter;stroke-miterlimit:10;stroke-opacity:1;stroke-dasharray:none"
         id="path154"
         inkscape:connector-curvature="0" />
    </g>
    <g
       id="g156"
       transform="matrix(4.1589442,0,0,-4.817861,190.90632,1031.7046)">
      <path
         d="m 0,0 5.266,0 c 0,0 11.093,15.942 31.043,6.97"
         style="fill:none;stroke:#725c44;stroke-width:2.6960001;stroke-linecap:butt;stroke-linejoin:miter;stroke-miterlimit:10;stroke-opacity:1;stroke-dasharray:none"
         id="path158"
         inkscape:connector-curvature="0" />
    </g>
    <g
       id="g160"
       transform="matrix(4.1589442,0,0,-4.817861,205.17605,1025.6914)">
      <path
         d="M 0,0 C 0,0 8.751,16.266 32.611,9.584"
         style="fill:none;stroke:#725c44;stroke-width:0.57800001;stroke-linecap:butt;stroke-linejoin:miter;stroke-miterlimit:10;stroke-opacity:1;stroke-dasharray:none"
         id="path162"
         inkscape:connector-curvature="0" />
    </g>
    <g
       id="g164"
       transform="matrix(4.1589442,0,0,-4.817861,199.86801,1025.2352)">
      <path
         d="M 0,0 C 0,0 8.755,18.251 33.694,11.993"
         style="fill:none;stroke:#725c44;stroke-width:0.57800001;stroke-linecap:butt;stroke-linejoin:miter;stroke-miterlimit:10;stroke-opacity:1;stroke-dasharray:none"
         id="path166"
         inkscape:connector-curvature="0" />
    </g>
    <g
       id="g168"
       transform="matrix(4.1589442,0,0,-4.817861,336.80042,954.46321)">
      <path
         d="M 0,0 C 0,0 -23.593,5.777 -34.601,-14.976"
         style="fill:none;stroke:#725c44;stroke-width:0.57800001;stroke-linecap:butt;stroke-linejoin:miter;stroke-miterlimit:10;stroke-opacity:1;stroke-dasharray:none"
         id="path170"
         inkscape:connector-curvature="0" />
    </g>
    <g
       id="g22"
       transform="matrix(2.4810473,0,0,-3.4885543,439.56335,1018.061)">
      <path
         d="M 0,0 C -0.465,0.031 -1.21,0.062 -1.769,0.062 -2.327,0.062 -3.04,0.031 -3.599,0 -4.622,4.064 -6.67,11.229 -8.003,15.386 l -0.094,0 C -9.71,11.105 -11.912,4.87 -13.525,0 c -0.404,0.031 -1.148,0.062 -1.738,0.062 -0.589,0 -1.396,-0.031 -1.799,-0.062 -1.334,5.553 -4.343,16.317 -6.018,21.125 l 0.093,0.093 c 1.148,-0.062 2.265,-0.062 2.73,-0.062 0.465,0 1.334,0.031 2.234,0.062 0.992,-4.529 3.009,-12.129 4.25,-16.193 l 0.092,0 c 1.552,4.188 4.033,11.602 5.212,16.193 0.558,-0.062 1.179,-0.062 1.644,-0.062 0.496,0 1.086,0.031 1.489,0.062 1.241,-4.901 3.567,-12.594 4.963,-16.224 l 0.094,0 c 1.55,4.219 3.722,10.92 5.056,16.224 0.403,-0.031 1.179,-0.062 1.52,-0.062 0.31,0 1.148,0.031 1.365,0.062 L 7.817,21.125 C 5.739,15.945 1.954,5.801 0,0"
         style="fill:#000000;fill-opacity:1;fill-rule:nonzero;stroke:none"
         id="path24"
         inkscape:connector-curvature="0" />
    </g>
    <g
       id="g26"
       transform="matrix(2.4810473,0,0,-3.4885543,478.34947,958.21586)">
      <path
         d="m 0,0 c -0.962,-2.109 -2.544,-5.894 -3.351,-8.035 0.807,-0.03 1.924,-0.03 2.823,-0.03 1.024,0 2.389,0 3.32,0.03 C 2.202,-6.205 0.961,-2.513 0,0 m 10.64,-17.155 c -1.086,0.031 -2.109,0.062 -2.854,0.062 -0.465,0 -1.241,-0.031 -2.203,-0.062 -0.465,1.8 -1.396,4.87 -2.233,7.383 -1.055,0.031 -2.606,0.031 -3.785,0.031 -1.21,0 -2.636,0 -3.598,-0.031 -0.931,-2.264 -2.078,-5.615 -2.544,-7.383 -0.341,0.031 -0.93,0.062 -1.334,0.062 -0.527,0 -1.086,-0.031 -1.613,-0.062 l -0.093,0.093 c 3.444,7.259 6.546,14.301 9.338,21.157 l 3.257,0 c 2.326,-6.732 6.173,-17.341 7.755,-21.157 l -0.093,-0.093 z"
         style="fill:#000000;fill-opacity:1;fill-rule:nonzero;stroke:none"
         id="path28"
         inkscape:connector-curvature="0" />
    </g>
    <g
       id="g30"
       transform="matrix(2.4810473,0,0,-3.4885543,530.68012,986.4613)">
      <path
         d="m 0,0 0,-1.241 c 0,-2.792 0.062,-5.336 0.248,-7.817 -0.837,0.031 -1.613,0.062 -2.389,0.062 -0.775,0 -1.551,-0.031 -2.419,-0.062 0.186,2.481 0.248,5.025 0.248,7.817 l 0,1.148 c -1.582,2.947 -5.211,9.182 -7.104,12.191 l 0.093,0.062 c 1.179,-0.031 2.14,-0.062 2.978,-0.062 0.931,0 1.582,0.031 2.389,0.062 1.209,-2.637 3.35,-6.763 5.025,-9.74 l 0.093,0 c 1.707,3.04 3.878,7.476 4.747,9.74 0.589,-0.031 1.085,-0.062 1.458,-0.062 0.496,0 1.395,0.031 1.675,0.062 L 7.135,12.098 C 5.335,9.399 1.582,3.133 0,0"
         style="fill:#000000;fill-opacity:1;fill-rule:nonzero;stroke:none"
         id="path32"
         inkscape:connector-curvature="0" />
    </g>
    <g
       id="g34"
       transform="matrix(2.4810473,0,0,-3.4885543,591.63171,995.33618)">
      <path
         d="m 0,0 0.124,0.031 0,3.754 c 0,3.722 -0.217,8.438 -0.621,10.919 0.683,-0.031 1.241,-0.062 1.676,-0.062 0.403,0 0.961,0.031 1.272,0.062 C 2.202,12.223 2.047,7.507 2.047,3.785 l 0,-2.482 c 0,-3.164 0.062,-6.142 0.124,-7.848 l -2.854,0 c -2.481,3.257 -8.065,10.051 -11.818,14.332 -0.218,0.248 -0.497,0.558 -0.807,0.961 l -0.093,-0.031 0,-4.312 c 0,-3.722 0.217,-8.438 0.62,-10.919 -0.527,0.031 -1.116,0.062 -1.52,0.062 -0.403,0 -1.054,-0.031 -1.458,-0.062 0.248,2.481 0.404,7.197 0.404,10.919 l 0,1.551 c 0,3.909 -0.094,7.477 -0.124,8.81 l 3.226,0 C -8.438,10.144 -3.94,4.715 -0.807,1.024 -0.589,0.776 -0.311,0.465 0,0"
         style="fill:#000000;fill-opacity:1;fill-rule:nonzero;stroke:none"
         id="path36"
         inkscape:connector-curvature="0" />
    </g>
    <g
       id="g38"
       transform="matrix(2.4810473,0,0,-3.4885543,609.55896,1018.061)">
      <path
         d="m 0,0 c 0.155,2.481 0.249,6.577 0.249,9.368 l 0,3.102 c 0,2.792 -0.094,6.267 -0.249,8.748 0.714,-0.031 2.358,-0.093 3.351,-0.093 2.047,0 6.048,0.031 8.096,0.093 -0.031,-0.589 -0.031,-0.93 -0.031,-1.178 0,-0.218 0,-0.59 0.031,-1.148 -1.334,0.248 -4.312,0.434 -6.732,0.434 -0.062,-1.52 -0.124,-3.94 -0.124,-6.297 l 0,-0.962 c 3.102,0 5.119,0.155 6.266,0.31 -0.03,-0.589 -0.03,-0.961 -0.03,-1.21 0,-0.217 0,-0.589 0.03,-1.147 -1.147,0.155 -3.164,0.248 -6.266,0.248 l 0,-1.117 c 0,-2.668 0.062,-5.832 0.124,-7.259 2.203,0 4.654,0.124 6.887,0.527 -0.031,-0.62 -0.031,-0.992 -0.031,-1.24 0,-0.218 0,-0.558 0.031,-1.179 C 10.641,0.031 9.213,0.031 7.725,0.062 6.235,0.093 4.685,0.093 3.351,0.093 2.513,0.093 0.714,0.031 0,0"
         style="fill:#000000;fill-opacity:1;fill-rule:nonzero;stroke:none"
         id="path40"
         inkscape:connector-curvature="0" />
    </g>
    <g
       id="g42"
       transform="matrix(2.4810473,0,0,-3.4885543,689.06024,1017.8447)">
      <path
         d="m 0,0 c -0.775,0 -1.551,-0.031 -2.419,-0.062 0.154,2.481 0.248,6.266 0.248,9.058 l 0,1.396 c -1.582,0.031 -3.412,0.031 -5.181,0.031 -1.892,0 -3.35,0 -4.622,-0.031 l 0,-1.396 c 0,-2.761 0.093,-6.577 0.248,-9.058 -0.868,0.031 -1.644,0.062 -2.42,0.062 -0.775,0 -1.551,-0.031 -2.419,-0.062 0.155,2.481 0.248,6.577 0.248,9.368 l 0,3.102 c 0,2.792 -0.093,6.267 -0.248,8.748 0.868,-0.031 1.644,-0.062 2.419,-0.062 0.776,0 1.552,0.031 2.42,0.062 -0.155,-2.481 -0.248,-4.808 -0.248,-7.6 l 0,-1.085 c 1.458,-0.032 2.885,-0.032 4.622,-0.032 1.675,0 3.94,0 5.181,0.032 l 0,1.054 c 0,2.792 -0.094,5.15 -0.248,7.631 0.868,-0.031 1.644,-0.062 2.419,-0.062 0.775,0 1.551,0.031 2.42,0.062 C 2.265,18.675 2.171,15.2 2.171,12.408 l 0,-3.102 C 2.171,6.515 2.265,2.419 2.42,-0.062 1.551,-0.031 0.775,0 0,0"
         style="fill:#000000;fill-opacity:1;fill-rule:nonzero;stroke:none"
         id="path44"
         inkscape:connector-curvature="0" />
    </g>
    <g
       id="g46"
       transform="matrix(2.5302548,0,0,-3.1387379,717.87667,1001.0534)">
      <path
         d="m 0,0 c 0,-1.62 0.853,-2.303 1.99,-2.303 1.023,0 1.933,0.74 2.132,1.564 C 4.207,0.199 4.236,1.933 4.236,3.127 1.251,2.587 0,1.961 0,0 m 0.256,-4.292 c -2.047,0 -3.866,1.222 -3.866,3.809 0,2.302 1.364,3.496 4.008,4.008 3.212,0.625 3.809,0.881 3.809,1.848 l 0,0.313 c 0,1.478 -0.625,2.7 -2.644,2.7 -1.421,0 -2.529,-0.938 -2.842,-2.871 l -0.626,0 C -2.047,6.624 -2.331,7.59 -2.559,8.159 -1.507,9.21 0.654,9.95 2.644,9.95 c 4.463,0 5.344,-2.218 5.344,-5.146 0,-1.336 -0.142,-4.008 -0.142,-5.458 0,-1.364 0.256,-2.274 1.45,-2.274 0.227,0 0.426,0 0.597,0.057 l 0,-0.768 C 9.182,-3.98 8.017,-4.236 6.908,-4.236 c -1.734,0 -2.53,0.797 -2.672,1.933 -0.654,-0.909 -1.933,-1.989 -3.98,-1.989"
         style="fill:#000000;fill-opacity:1;fill-rule:nonzero;stroke:none"
         id="path48"
         inkscape:connector-curvature="0" />
    </g>
    <g
       id="g50"
       transform="matrix(2.5302548,0,0,-3.1387379,754.49617,977.40866)">
      <path
         d="m 0,0 0.113,0 c 0.995,1.308 2.559,2.246 4.549,2.246 3.639,0 4.577,-2.189 4.577,-4.975 0,-0.966 -0.086,-2.303 -0.086,-3.667 l 0,-0.341 c 0,-1.251 0.057,-3.753 0.142,-4.889 -0.568,0.028 -1.279,0.056 -1.989,0.056 -0.711,0 -1.422,-0.028 -1.99,-0.056 0.085,1.762 0.142,5.031 0.142,7.163 l 0,0.824 c 0,1.734 -0.285,3.724 -2.331,3.724 -1.99,0 -3.042,-1.478 -3.042,-4.036 l 0,-1.933 c 0,-1.706 0.057,-4.122 0.199,-5.742 -0.625,0.028 -1.336,0.056 -2.047,0.056 -0.71,0 -1.421,-0.028 -2.047,-0.056 0.143,1.591 0.2,4.747 0.2,6.452 l 0,1.308 c 0,1.705 -0.057,3.951 -0.2,5.827 0.626,-0.028 1.337,-0.056 2.047,-0.056 0.711,0 1.422,0.028 1.905,0.056 C 0.028,1.365 0,0.625 0,0"
         style="fill:#000000;fill-opacity:1;fill-rule:nonzero;stroke:none"
         id="path52"
         inkscape:connector-curvature="0" />
    </g>
    <g
       id="g54"
       transform="matrix(2.5302548,0,0,-3.1387379,801.11441,974.99937)">
      <path
         d="m 0,0 c -2.161,0 -3.326,-2.388 -3.326,-5.572 0,-2.729 1.023,-5.344 3.212,-5.344 2.104,0 3.241,2.388 3.241,5.43 C 3.127,-2.559 2.445,0 0,0 m 4.833,-12.337 c -0.711,0 -1.394,-0.029 -1.905,-0.057 0.057,0.739 0.085,1.478 0.085,2.16 l -0.057,0 c -0.597,-1.194 -1.99,-2.473 -4.633,-2.473 -4.009,0 -5.686,3.525 -5.686,7.107 0,3.61 1.905,7.192 6.282,7.192 2.247,0 3.383,-0.882 4.037,-1.848 l 0.057,0 0,0.682 c 0,2.559 -0.085,6.226 -0.199,8.5 0.569,-0.029 1.251,-0.057 1.961,-0.057 0.711,0 1.422,0.028 2.047,0.057 C 6.708,6.652 6.624,2.132 6.624,-0.426 l 0,-3.383 c 0,-2.559 0.084,-6.283 0.198,-8.585 -0.625,0.028 -1.279,0.057 -1.989,0.057"
         style="fill:#000000;fill-opacity:1;fill-rule:nonzero;stroke:none"
         id="path56"
         inkscape:connector-curvature="0" />
    </g>
    <g
       id="g58"
       transform="matrix(3.0842691,0,0,-3.442744,887.7039,962.33229)">
      <path
         d="m 0,0 -0.745,-0.062 c -0.651,2.327 -2.636,3.413 -5.366,3.413 -4.436,0 -7.538,-2.948 -7.538,-9.121 0,-5.522 2.544,-8.996 7.941,-8.996 2.203,0 4.405,0.776 5.739,2.389 l 0.372,-0.124 c 0,-0.931 -0.186,-2.203 -0.31,-2.575 -1.303,-0.931 -3.722,-1.768 -6.824,-1.768 -7.384,0 -11.757,3.846 -11.757,11.043 0,6.794 4.436,10.951 11.787,10.951 3.444,0 6.143,-0.776 7.57,-1.458 C 0.589,2.916 0.217,1.489 0,0"
         style="fill:#000000;fill-opacity:1;fill-rule:nonzero;stroke:none"
         id="path60"
         inkscape:connector-curvature="0" />
    </g>
    <g
       id="g62"
       transform="matrix(3.0842691,0,0,-3.442744,931.4242,950.04891)">
      <path
         d="m 0,0 c -4.033,0 -6.359,-3.165 -6.359,-9.399 0,-6.081 2.326,-9.338 6.359,-9.338 4.033,0 6.39,3.226 6.39,9.338 C 6.39,-3.351 4.033,0 0,0 m 0,-20.474 c -6.949,0 -11.292,4.312 -11.292,11.075 0,6.762 4.343,11.074 11.292,11.074 7.135,0 11.323,-4.219 11.323,-11.074 0,-6.67 -4.344,-11.075 -11.323,-11.075"
         style="fill:#000000;fill-opacity:1;fill-rule:nonzero;stroke:none"
         id="path64"
         inkscape:connector-curvature="0" />
    </g>
    <g
       id="g66"
       transform="matrix(3.0842691,0,0,-3.442744,989.1113,946.20442)">
      <path
         d="m 0,0 c 2.047,0 6.049,0.031 8.097,0.093 -0.032,-0.59 -0.032,-0.931 -0.032,-1.179 0,-0.217 0,-0.589 0.032,-1.148 C 6.763,-1.985 3.785,-1.799 1.396,-1.799 1.334,-2.885 1.272,-5.894 1.272,-8.221 l 0,-0.837 c 3.071,0 5.087,0.155 6.235,0.31 -0.031,-0.589 -0.031,-0.962 -0.031,-1.21 0,-0.217 0,-0.589 0.031,-1.179 -1.148,0.186 -3.164,0.28 -6.235,0.28 l 0,-1.179 c 0,-2.761 0.093,-6.608 0.248,-9.089 -0.9,0.03 -1.675,0.062 -2.451,0.062 -0.775,0 -1.551,-0.032 -2.42,-0.062 0.156,2.481 0.249,6.576 0.249,9.368 l 0,3.102 c 0,2.792 -0.093,6.266 -0.249,8.748 C -2.637,0.062 -0.993,0 0,0"
         style="fill:#000000;fill-opacity:1;fill-rule:nonzero;stroke:none"
         id="path68"
         inkscape:connector-curvature="0" />
    </g>
    <g
       id="g70"
       transform="matrix(3.0842691,0,0,-3.442744,1035.2247,946.20442)">
      <path
         d="m 0,0 c 2.047,0 6.049,0.031 8.097,0.093 -0.032,-0.59 -0.032,-0.931 -0.032,-1.179 0,-0.217 0,-0.589 0.032,-1.148 C 6.763,-1.985 3.785,-1.799 1.396,-1.799 1.334,-2.885 1.272,-5.894 1.272,-8.221 l 0,-0.837 c 3.071,0 5.087,0.155 6.235,0.31 -0.031,-0.589 -0.031,-0.962 -0.031,-1.21 0,-0.217 0,-0.589 0.031,-1.179 -1.148,0.186 -3.164,0.28 -6.235,0.28 l 0,-1.179 c 0,-2.761 0.093,-6.608 0.248,-9.089 -0.9,0.03 -1.675,0.062 -2.451,0.062 -0.775,0 -1.551,-0.032 -2.42,-0.062 0.156,2.481 0.249,6.576 0.249,9.368 l 0,3.102 c 0,2.792 -0.093,6.266 -0.249,8.748 C -2.637,0.062 -0.993,0 0,0"
         style="fill:#000000;fill-opacity:1;fill-rule:nonzero;stroke:none"
         id="path72"
         inkscape:connector-curvature="0" />
    </g>
    <g
       id="g74"
       transform="matrix(3.0842691,0,0,-3.442744,1071.0039,1018.9341)">
      <path
         d="m 0,0 c 0.155,2.481 0.249,6.577 0.249,9.368 l 0,3.102 c 0,2.792 -0.094,6.267 -0.249,8.748 0.714,-0.031 2.358,-0.093 3.351,-0.093 2.047,0 6.048,0.031 8.096,0.093 -0.031,-0.589 -0.031,-0.93 -0.031,-1.178 0,-0.218 0,-0.59 0.031,-1.148 -1.334,0.248 -4.312,0.434 -6.732,0.434 -0.062,-1.52 -0.124,-3.94 -0.124,-6.297 l 0,-0.962 c 3.102,0 5.119,0.155 6.266,0.31 -0.03,-0.589 -0.03,-0.961 -0.03,-1.21 0,-0.217 0,-0.589 0.03,-1.147 -1.147,0.155 -3.164,0.248 -6.266,0.248 l 0,-1.117 c 0,-2.668 0.062,-5.832 0.124,-7.259 2.203,0 4.654,0.124 6.887,0.527 -0.031,-0.62 -0.031,-0.992 -0.031,-1.24 0,-0.218 0,-0.558 0.031,-1.179 C 10.641,0.031 9.213,0.031 7.725,0.062 6.235,0.093 4.685,0.093 3.351,0.093 2.513,0.093 0.714,0.031 0,0"
         style="fill:#000000;fill-opacity:1;fill-rule:nonzero;stroke:none"
         id="path76"
         inkscape:connector-curvature="0" />
    </g>
    <g
       id="g78"
       transform="matrix(3.0842691,0,0,-3.442744,1118.7438,1018.9341)">
      <path
         d="m 0,0 c 0.155,2.481 0.248,6.577 0.248,9.368 l 0,3.102 c 0,2.792 -0.093,6.267 -0.248,8.748 0.713,-0.031 2.357,-0.093 3.35,-0.093 2.047,0 6.049,0.031 8.097,0.093 -0.031,-0.589 -0.031,-0.93 -0.031,-1.178 0,-0.218 0,-0.59 0.031,-1.148 -1.334,0.248 -4.312,0.434 -6.732,0.434 -0.062,-1.52 -0.124,-3.94 -0.124,-6.297 l 0,-0.962 c 3.102,0 5.118,0.155 6.266,0.31 -0.031,-0.589 -0.031,-0.961 -0.031,-1.21 0,-0.217 0,-0.589 0.031,-1.147 -1.148,0.155 -3.164,0.248 -6.266,0.248 l 0,-1.117 c 0,-2.668 0.062,-5.832 0.124,-7.259 2.202,0 4.653,0.124 6.887,0.527 -0.031,-0.62 -0.031,-0.992 -0.031,-1.24 0,-0.218 0,-0.558 0.031,-1.179 C 10.64,0.031 9.213,0.031 7.724,0.062 6.235,0.093 4.684,0.093 3.35,0.093 2.513,0.093 0.713,0.031 0,0"
         style="fill:#000000;fill-opacity:1;fill-rule:nonzero;stroke:none"
         id="path80"
         inkscape:connector-curvature="0" />
    </g>
  </g>
</svg>
